<?xml version="1.0" encoding="UTF-8"?>
<svg xmlns="http://www.w3.org/2000/svg" viewBox="0 0 4000 1000">
  <g id="whiteBg">
    <rect width="4000" height="1000" style="fill: #fff;"/>
  </g>
  <g id="text">
    <path d="m0,0v1000h4000V0H0Zm634.65,762.89h-153.52V237.11h153.52v166.79h-61.87v183.1h61.87v175.89Zm338.67,0h-154.69v-200.78h-183.98v-135.94h183.98v-189.06h154.69v525.78Zm436.56-399.22h-219.14v73.44h193.75v121.88h-193.75v77.34h219.14v126.56h-372.66V237.11h372.66v126.56Zm401.02,399.22h-348.83V237.11h153.52v399.22h195.31v126.56Zm271.33,0h-182.03l-167.19-525.78h164.45l95.31,363.28,96.88-363.28h166.41l-173.83,525.78Zm550.23-399.22h-219.14v73.44h193.75v121.88h-193.75v77.34h219.14v126.56h-372.66V237.11h372.66v126.56Zm711.41,216.8v182.42h-158.59v-182.42l-133.44-260.65v43.85h-129.69v399.22h-153.52v-399.22h-130.47v-126.56h543.2l82.42,200,83.2-200h171.88l-175,343.36Z" style="fill: red;"/>
  </g>
</svg>